<?xml version="1.0" encoding="UTF-8" standalone="no"?>
<!-- Uploaded to: SVG Repo, www.svgrepo.com, Generator: SVG Repo Mixer Tools -->

<svg
   width="800px"
   height="800px"
   viewBox="0 0 16 16"
   id="meteor-icon-kit__regular-copy-s"
   fill="none"
   version="1.1"
   sodipodi:docname="copy_active.svg"
   inkscape:version="1.2.1 (9c6d41e410, 2022-07-14)"
   xmlns:inkscape="http://www.inkscape.org/namespaces/inkscape"
   xmlns:sodipodi="http://sodipodi.sourceforge.net/DTD/sodipodi-0.dtd"
   xmlns="http://www.w3.org/2000/svg"
   xmlns:svg="http://www.w3.org/2000/svg">
  <defs
     id="defs144" />
  <sodipodi:namedview
     id="namedview142"
     pagecolor="#ffffff"
     bordercolor="#000000"
     borderopacity="0.25"
     inkscape:showpageshadow="2"
     inkscape:pageopacity="0.0"
     inkscape:pagecheckerboard="0"
     inkscape:deskcolor="#d1d1d1"
     showgrid="false"
     inkscape:zoom="0.78374771"
     inkscape:cx="204.78529"
     inkscape:cy="387.87992"
     inkscape:window-width="1366"
     inkscape:window-height="697"
     inkscape:window-x="-8"
     inkscape:window-y="-8"
     inkscape:window-maximized="1"
     inkscape:current-layer="meteor-icon-kit__regular-copy-s" />
  <path
     id="rect405"
     style="fill:#0055ff;stroke:#634455;stroke-width:0;fill-opacity:0.5;stroke-dasharray:none"
     d="M 0.80972656 1.5870313 L 0.80972656 10.429141 L 4.5667969 10.429141 L 4.5667969 14.931172 L 14.67207 14.931172 L 14.67207 5.4089063 L 10.753047 5.4089063 L 10.753047 1.5870313 L 0.80972656 1.5870313 z " />
  <path
     fill-rule="evenodd"
     clip-rule="evenodd"
     d="M10 4V2H2V10H4V6C4 4.89543 4.89543 4 6 4H10zM12 4H14C15.1046 4 16 4.89543 16 6V14C16 15.1046 15.1046 16 14 16H6C4.89543 16 4 15.1046 4 14V12H2C0.89543 12 0 11.1046 0 10V2C0 0.89543 0.89543 0 2 0H10C11.1046 0 12 0.89543 12 2V4zM6 6V14H14V6H6z"
     fill="#758CA3"
     id="path139"
     style="fill:#4275a9;fill-opacity:1" />
</svg>
