<?xml version="1.0" encoding="UTF-8" standalone="no"?>
<!-- Created with Inkscape (http://www.inkscape.org/) -->

<svg
   width="165mm"
   height="165mm"
   viewBox="0 0 165 165"
   version="1.1"
   id="svg6887"
   xml:space="preserve"
   inkscape:version="1.2.2 (732a01da63, 2022-12-09)"
   sodipodi:docname="logo.svg"
   xmlns:inkscape="http://www.inkscape.org/namespaces/inkscape"
   xmlns:sodipodi="http://sodipodi.sourceforge.net/DTD/sodipodi-0.dtd"
   xmlns:xlink="http://www.w3.org/1999/xlink"
   xmlns="http://www.w3.org/2000/svg"
   xmlns:svg="http://www.w3.org/2000/svg"><sodipodi:namedview
     id="namedview6889"
     pagecolor="#ffffff"
     bordercolor="#000000"
     borderopacity="0.25"
     inkscape:showpageshadow="2"
     inkscape:pageopacity="0.0"
     inkscape:pagecheckerboard="0"
     inkscape:deskcolor="#d1d1d1"
     inkscape:document-units="mm"
     showgrid="false"
     inkscape:zoom="0.576"
     inkscape:cx="452.25694"
     inkscape:cy="368.05556"
     inkscape:window-width="1366"
     inkscape:window-height="705"
     inkscape:window-x="-8"
     inkscape:window-y="-8"
     inkscape:window-maximized="1"
     inkscape:current-layer="layer1" /><defs
     id="defs6884"><linearGradient
       inkscape:collect="always"
       xlink:href="#linearGradient23383"
       id="linearGradient8094"
       gradientUnits="userSpaceOnUse"
       gradientTransform="matrix(0.98146158,0,0,0.91942847,54.789995,-168.98418)"
       x1="-197.19608"
       y1="138.19034"
       x2="-197.19608"
       y2="219.10489" /><linearGradient
       inkscape:collect="always"
       id="linearGradient23383"><stop
         style="stop-color:#00b500;stop-opacity:1;"
         offset="0"
         id="stop23379" /><stop
         style="stop-color:#ffff00;stop-opacity:1;"
         offset="0.89999998"
         id="stop23381" /></linearGradient><linearGradient
       inkscape:collect="always"
       xlink:href="#linearGradient13505"
       id="linearGradient8096"
       gradientUnits="userSpaceOnUse"
       gradientTransform="matrix(0.98146158,0,0,0.91942847,54.789995,-168.98418)"
       x1="-197.19608"
       y1="138.19034"
       x2="-197.19608"
       y2="219.10489" /><linearGradient
       inkscape:collect="always"
       id="linearGradient13505"><stop
         style="stop-color:#009900;stop-opacity:1;"
         offset="0"
         id="stop13501" /><stop
         style="stop-color:#e5e500;stop-opacity:1;"
         offset="1"
         id="stop13503" /></linearGradient><linearGradient
       inkscape:collect="always"
       xlink:href="#linearGradient22651"
       id="linearGradient8098"
       gradientUnits="userSpaceOnUse"
       gradientTransform="matrix(0.98146158,0,0,0.91942847,241.54365,-81.509166)"
       x1="-197.19611"
       y1="138.19037"
       x2="-197.19611"
       y2="219.10492" /><linearGradient
       inkscape:collect="always"
       id="linearGradient22651"><stop
         style="stop-color:#ff0000;stop-opacity:1;"
         offset="0"
         id="stop22647" /><stop
         style="stop-color:#e666ff;stop-opacity:1;"
         offset="1"
         id="stop22649" /></linearGradient><linearGradient
       inkscape:collect="always"
       xlink:href="#linearGradient982"
       id="linearGradient984"
       x1="121.26781"
       y1="291.89233"
       x2="121.26781"
       y2="366.28748"
       gradientUnits="userSpaceOnUse"
       gradientTransform="translate(-73.264575,-246.34543)" /><linearGradient
       inkscape:collect="always"
       id="linearGradient982"><stop
         style="stop-color:#cc0000;stop-opacity:1;"
         offset="0"
         id="stop978" /><stop
         style="stop-color:#da3af8;stop-opacity:1;"
         offset="1"
         id="stop980" /></linearGradient><linearGradient
       inkscape:collect="always"
       xlink:href="#linearGradient22645"
       id="linearGradient8102"
       gradientUnits="userSpaceOnUse"
       gradientTransform="matrix(0.98146027,0,0,0.9814629,372.61449,-89.641108)"
       x1="-197.19608"
       y1="138.19031"
       x2="-197.19608"
       y2="219.10484" /><linearGradient
       inkscape:collect="always"
       id="linearGradient22645"><stop
         style="stop-color:#1affff;stop-opacity:1;"
         offset="0"
         id="stop22641" /><stop
         style="stop-color:#0000ca;stop-opacity:1;"
         offset="1"
         id="stop22643" /></linearGradient><linearGradient
       inkscape:collect="always"
       xlink:href="#linearGradient13517"
       id="linearGradient8104"
       gradientUnits="userSpaceOnUse"
       gradientTransform="matrix(0.98146027,0,0,0.9814629,372.61449,-89.641108)"
       x1="-197.19608"
       y1="138.19031"
       x2="-197.19608"
       y2="219.10484" /><linearGradient
       inkscape:collect="always"
       id="linearGradient13517"><stop
         style="stop-color:#00e5e5;stop-opacity:1;"
         offset="0"
         id="stop13513" /><stop
         style="stop-color:#000099;stop-opacity:1;"
         offset="1"
         id="stop13515" /></linearGradient><filter
       inkscape:collect="always"
       style="color-interpolation-filters:sRGB"
       id="filter32242"
       x="-0.047625703"
       y="-0.048380229"
       width="1.0952514"
       height="1.0967605"><feGaussianBlur
         inkscape:collect="always"
         stdDeviation="1.5765986"
         id="feGaussianBlur32244" /></filter><clipPath
       clipPathUnits="userSpaceOnUse"
       id="clipPath11936"><path
         d="m 192.45943,-110.97467 q -0.23275,1.31997 -0.50592,2.27035 -0.21106,0.89758 -0.49049,1.58397 -0.27012,0.63358 -0.6179,1.10877 -0.34778,0.47519 -1.04029,1.10878 -0.68319,0.58078 -2.54033,1.53116 -1.80434,0.95038 -4.39136,1.84796 -2.5249,0.84478 -5.74244,1.42557 -3.16474,0.580788 -6.75506,0.580788 -7.02225,0 -12.29002,-2.164758 -5.26776,-2.16475 -8.47358,-6.44145 -3.1965,-4.32951 -4.17265,-10.77096 -0.97616,-6.44146 0.53204,-14.99487 1.53612,-8.71181 5.05093,-15.47006 3.51482,-6.75825 8.49588,-11.35175 4.98107,-4.5935 11.20789,-6.96944 6.27961,-2.37595 13.30185,-2.37595 2.85114,0 5.40729,0.47519 2.55615,0.47519 4.63405,1.26717 2.14002,0.73918 3.75829,1.74236 1.61827,1.00318 2.17432,1.74236 0.61815,0.68639 0.79837,1.16158 0.1802,0.47519 0.20826,1.21437 0.0281,0.73919 -0.096,1.74236 -0.0713,1.00318 -0.33197,2.48155 -0.27929,1.58396 -0.5804,2.69274 -0.30111,1.10877 -0.68613,1.79516 -0.38501,0.68638 -0.81047,1.00318 -0.42545,0.31679 -0.90064,0.31679 -0.79198,0 -1.84809,-0.89758 -1.0468,-0.95038 -2.80484,-2.05916 -1.69594,-1.16157 -4.23042,-2.05915 -2.47236,-0.95038 -6.16828,-0.95038 -4.06551,0 -7.58415,1.68956 -3.45654,1.63677 -6.27617,4.7519 -2.75752,3.06233 -4.69181,7.44463 -1.9343,4.38231 -2.90253,9.87338 -1.06132,6.01907 -0.62898,10.45417 0.49447,4.38231 2.26208,7.23344 1.82042,2.85114 4.78977,4.27671 3.03148,1.37277 7.09699,1.37277 3.69592,0 6.53761,-0.84478 2.85101,-0.89758 4.93797,-1.95356 2.13975,-1.05598 3.50308,-1.90076 1.41613,-0.84478 2.10251,-0.84478 0.52799,0 0.80755,0.2112 0.27955,0.21119 0.37902,0.84478 0.0995,0.63358 2.7e-4,1.79516 -0.0899,1.10877 -0.42507,3.00953 z"
         style="fill:#ff1a1a;stroke-width:1"
         id="path11938" /></clipPath><clipPath
       clipPathUnits="userSpaceOnUse"
       id="clipPath12678"><path
         d="m 707.67043,-110.97467 q -0.23275,1.31997 -0.50591,2.27035 -0.21108,0.89758 -0.49051,1.58397 -0.27011,0.63358 -0.61788,1.10877 -0.3478,0.47519 -1.04029,1.10878 -0.68321,0.58078 -2.54034,1.53116 -1.80436,0.95038 -4.39135,1.84796 -2.52491,0.84478 -5.74246,1.42557 -3.16473,0.580788 -6.75505,0.580788 -7.02225,0 -12.29003,-2.164758 -5.26777,-2.16475 -8.47357,-6.44145 -3.19651,-4.32951 -4.17266,-10.77096 -0.97616,-6.44146 0.53205,-14.99487 1.53611,-8.71181 5.05094,-15.47006 3.51481,-6.75825 8.49588,-11.35175 4.98105,-4.5935 11.20788,-6.96944 6.2796,-2.37595 13.30185,-2.37595 2.85115,0 5.40729,0.47519 2.55614,0.47519 4.63405,1.26717 2.14002,0.73918 3.7583,1.74236 1.61827,1.00318 2.17432,1.74236 0.61814,0.68639 0.79835,1.16158 0.18021,0.47519 0.20825,1.21437 0.0281,0.73919 -0.096,1.74236 -0.0713,1.00318 -0.33198,2.48155 -0.27929,1.58396 -0.58039,2.69274 -0.30112,1.10877 -0.68611,1.79516 -0.38505,0.68638 -0.8105,1.00318 -0.42545,0.31679 -0.90064,0.31679 -0.79198,0 -1.84807,-0.89758 -1.04682,-0.95038 -2.80484,-2.05916 -1.69596,-1.16157 -4.23043,-2.05915 -2.47237,-0.95038 -6.16828,-0.95038 -4.06551,0 -7.58415,1.68956 -3.45654,1.63677 -6.27618,4.7519 -2.75752,3.06233 -4.6918,7.44463 -1.93429,4.38231 -2.90254,9.87338 -1.06132,6.01907 -0.62896,10.45417 0.49445,4.38231 2.26208,7.23344 1.82041,2.85114 4.78978,4.27671 3.03146,1.37277 7.09697,1.37277 3.69591,0 6.53761,-0.84478 2.85102,-0.89758 4.93798,-1.95356 2.13973,-1.05598 3.50308,-1.90076 1.41613,-0.84478 2.10251,-0.84478 0.52798,0 0.80753,0.2112 0.27956,0.21119 0.37905,0.84478 0.0995,0.63358 0,1.79516 -0.0899,1.10877 -0.42508,3.00953 z"
         style="fill:#3333ff;stroke-width:1"
         id="path12680" /></clipPath><clipPath
       clipPathUnits="userSpaceOnUse"
       id="clipPath17050"><path
         d="m 455.39761,-110.97467 q -0.23276,1.31997 -0.50591,2.27035 -0.21109,0.89758 -0.49052,1.58397 -0.27011,0.63358 -0.61788,1.10877 -0.34779,0.47519 -1.04029,1.10878 -0.6832,0.58078 -2.54034,1.53116 -1.80433,0.95038 -4.39137,1.84796 -2.52489,0.84478 -5.74244,1.42557 -3.16473,0.580788 -6.75505,0.580788 -7.02225,0 -12.29002,-2.164758 -5.26775,-2.16475 -8.47358,-6.44145 -3.19651,-4.32951 -4.17266,-10.77096 -0.97613,-6.44146 0.53205,-14.99487 1.53614,-8.71181 5.05095,-15.47006 3.5148,-6.75825 8.49587,-11.35175 4.98105,-4.5935 11.20789,-6.96944 6.27959,-2.37595 13.30184,-2.37595 2.85113,0 5.40729,0.47519 2.55614,0.47519 4.63405,1.26717 2.14003,0.73918 3.7583,1.74236 1.61827,1.00318 2.17432,1.74236 0.61814,0.68639 0.79835,1.16158 0.18021,0.47519 0.20828,1.21437 0.0281,0.73919 -0.096,1.74236 -0.0713,1.00318 -0.33197,2.48155 -0.2793,1.58396 -0.58039,2.69274 -0.3011,1.10877 -0.68615,1.79516 -0.38499,0.68638 -0.81044,1.00318 -0.42548,0.31679 -0.90067,0.31679 -0.79198,0 -1.84806,-0.89758 -1.0468,-0.95038 -2.80485,-2.05916 -1.69595,-1.16157 -4.23042,-2.05915 -2.47238,-0.95038 -6.16829,-0.95038 -4.06551,0 -7.58415,1.68956 -3.45654,1.63677 -6.27618,4.7519 -2.75751,3.06233 -4.6918,7.44463 -1.93429,4.38231 -2.90253,9.87338 -1.06133,6.01907 -0.62897,10.45417 0.49445,4.38231 2.26208,7.23344 1.82041,2.85114 4.78978,4.27671 3.03146,1.37277 7.09697,1.37277 3.69591,0 6.53762,-0.84478 2.85101,-0.89758 4.93797,-1.95356 2.13974,-1.05598 3.50308,-1.90076 1.41613,-0.84478 2.10251,-0.84478 0.52798,0 0.80754,0.2112 0.27956,0.21119 0.37904,0.84478 0.0995,0.63358 2.4e-4,1.79516 -0.0899,1.10877 -0.42505,3.00953 z"
         style="fill:#33ff33;stroke-width:1"
         id="path17052" /></clipPath></defs><g
     inkscape:label="Layer 1"
     inkscape:groupmode="layer"
     id="layer1"><rect
       style="fill:url(#linearGradient8094);fill-opacity:1;stroke:url(#linearGradient8096);stroke-width:0;stroke-linejoin:round;stroke-dasharray:none"
       id="rect1517-3-9"
       width="79.414223"
       height="74.395142"
       x="-178.4575"
       y="-41.928001"
       rx="6.8918982"
       transform="matrix(-0.8835178,-0.46839759,0,1,0,0)" /><rect
       style="fill:url(#linearGradient8098);fill-opacity:1;stroke:url(#linearGradient984);stroke-width:0;stroke-linejoin:round;stroke-dasharray:none;stroke-opacity:1"
       id="rect1517-3-8-4"
       width="79.414223"
       height="74.395142"
       x="8.2961254"
       y="45.546978"
       rx="6.8918982"
       transform="matrix(0.8835178,-0.46839759,0,1,0,0)" /><rect
       style="fill:url(#linearGradient8102);fill-opacity:1;stroke:url(#linearGradient8104);stroke-width:0;stroke-linejoin:round;stroke-dasharray:none"
       id="rect1517-3-8-8-6"
       width="79.414116"
       height="79.414627"
       x="139.36702"
       y="45.987499"
       rx="6.8918886"
       transform="matrix(0.88350932,0.46841358,-0.88352628,0.46838159,0,0)" /><g
       id="g32250"
       transform="matrix(1.1541948,0,0,1.1541948,-223.65792,-218.07875)"><text
         xml:space="preserve"
         style="font-weight:bold;font-size:101.505px;font-family:Georgia;-inkscape-font-specification:'Georgia Bold';fill:#5d5d5d;fill-opacity:1;stroke:#ffffff;stroke-width:0;stroke-linejoin:round;stroke-dasharray:none;stroke-opacity:0.753191;filter:url(#filter32242)"
         x="225.04675"
         y="293.53293"
         id="text1917-0-3-2"><tspan
           sodipodi:role="line"
           id="tspan1915-7-0-9"
           style="font-style:normal;font-variant:normal;font-weight:bold;font-stretch:normal;font-size:101.505px;font-family:'Segoe Script';-inkscape-font-specification:'Segoe Script Bold';fill:#5d5d5d;fill-opacity:1;stroke:#0a0a0a;stroke-width:0;stroke-dasharray:none;stroke-opacity:0.753191"
           x="225.04675"
           y="293.53293">C</tspan></text><text
         xml:space="preserve"
         style="font-weight:bold;font-size:101.505px;font-family:Georgia;-inkscape-font-specification:'Georgia Bold';fill:#ffffff;fill-opacity:1;stroke:#ffffff;stroke-width:0;stroke-linejoin:round;stroke-dasharray:none;stroke-opacity:0.753191"
         x="222.40096"
         y="290.88705"
         id="text1917-0-3"><tspan
           sodipodi:role="line"
           id="tspan1915-7-0"
           style="font-style:normal;font-variant:normal;font-weight:bold;font-stretch:normal;font-size:101.505px;font-family:'Segoe Script';-inkscape-font-specification:'Segoe Script Bold';fill:#ffffff;fill-opacity:1;stroke:#0a0a0a;stroke-width:0;stroke-dasharray:none;stroke-opacity:0.753191"
           x="222.40096"
           y="290.88705">C</tspan></text></g></g></svg>
