<?xml version="1.0" encoding="UTF-8" standalone="no"?>
<!-- Created with Inkscape (http://www.inkscape.org/) -->

<svg
   width="1200mm"
   height="170mm"
   viewBox="0 0 1200 170"
   version="1.1"
   id="svg6887"
   xml:space="preserve"
   inkscape:version="1.2.2 (732a01da63, 2022-12-09)"
   sodipodi:docname="logo_letter.svg"
   xmlns:inkscape="http://www.inkscape.org/namespaces/inkscape"
   xmlns:sodipodi="http://sodipodi.sourceforge.net/DTD/sodipodi-0.dtd"
   xmlns:xlink="http://www.w3.org/1999/xlink"
   xmlns="http://www.w3.org/2000/svg"
   xmlns:svg="http://www.w3.org/2000/svg"><sodipodi:namedview
     id="namedview6889"
     pagecolor="#ffffff"
     bordercolor="#000000"
     borderopacity="0.25"
     inkscape:showpageshadow="2"
     inkscape:pageopacity="0.0"
     inkscape:pagecheckerboard="0"
     inkscape:deskcolor="#d1d1d1"
     inkscape:document-units="mm"
     showgrid="false"
     inkscape:zoom="0.30703141"
     inkscape:cx="1887.4291"
     inkscape:cy="309.4146"
     inkscape:window-width="1366"
     inkscape:window-height="705"
     inkscape:window-x="-8"
     inkscape:window-y="-8"
     inkscape:window-maximized="1"
     inkscape:current-layer="layer1" /><defs
     id="defs6884"><linearGradient
       inkscape:collect="always"
       id="linearGradient1278"><stop
         style="stop-color:#00b200;stop-opacity:1;"
         offset="0"
         id="stop1274" /><stop
         style="stop-color:#ffff00;stop-opacity:1;"
         offset="0.89999998"
         id="stop1276" /></linearGradient><linearGradient
       inkscape:collect="always"
       xlink:href="#linearGradient22651"
       id="linearGradient8098"
       gradientUnits="userSpaceOnUse"
       gradientTransform="matrix(0.98146158,0,0,0.91942847,238.69697,-83.761238)"
       x1="-197.19611"
       y1="138.19037"
       x2="-197.19611"
       y2="219.10492" /><linearGradient
       inkscape:collect="always"
       id="linearGradient22651"><stop
         style="stop-color:#ff0000;stop-opacity:1;"
         offset="0"
         id="stop22647" /><stop
         style="stop-color:#e666ff;stop-opacity:1;"
         offset="1"
         id="stop22649" /></linearGradient><linearGradient
       inkscape:collect="always"
       xlink:href="#linearGradient982"
       id="linearGradient984"
       x1="121.26781"
       y1="291.89233"
       x2="121.26781"
       y2="366.28748"
       gradientUnits="userSpaceOnUse"
       gradientTransform="translate(-76.111258,-248.5975)" /><linearGradient
       inkscape:collect="always"
       id="linearGradient982"><stop
         style="stop-color:#cc0000;stop-opacity:1;"
         offset="0"
         id="stop978" /><stop
         style="stop-color:#da3af8;stop-opacity:1;"
         offset="1"
         id="stop980" /></linearGradient><linearGradient
       inkscape:collect="always"
       xlink:href="#linearGradient22645"
       id="linearGradient8102"
       gradientUnits="userSpaceOnUse"
       gradientTransform="matrix(0.98146027,0,0,0.9814629,370.21051,-89.198384)"
       x1="-197.19608"
       y1="138.19031"
       x2="-197.19608"
       y2="219.10484" /><linearGradient
       inkscape:collect="always"
       id="linearGradient22645"><stop
         style="stop-color:#1affff;stop-opacity:1;"
         offset="0"
         id="stop22641" /><stop
         style="stop-color:#0000ca;stop-opacity:1;"
         offset="1"
         id="stop22643" /></linearGradient><linearGradient
       inkscape:collect="always"
       xlink:href="#linearGradient13517"
       id="linearGradient8104"
       gradientUnits="userSpaceOnUse"
       gradientTransform="matrix(0.98146027,0,0,0.9814629,370.21051,-89.198384)"
       x1="-197.19608"
       y1="138.19031"
       x2="-197.19608"
       y2="219.10484" /><linearGradient
       inkscape:collect="always"
       id="linearGradient13517"><stop
         style="stop-color:#00e5e5;stop-opacity:1;"
         offset="0"
         id="stop13513" /><stop
         style="stop-color:#000099;stop-opacity:1;"
         offset="1"
         id="stop13515" /></linearGradient><filter
       inkscape:collect="always"
       style="color-interpolation-filters:sRGB"
       id="filter32242"
       x="-0.047625703"
       y="-0.048380229"
       width="1.0952514"
       height="1.0967605"><feGaussianBlur
         inkscape:collect="always"
         stdDeviation="1.5765986"
         id="feGaussianBlur32244" /></filter><clipPath
       clipPathUnits="userSpaceOnUse"
       id="clipPath11936"><path
         d="m 192.45943,-110.97467 q -0.23275,1.31997 -0.50592,2.27035 -0.21106,0.89758 -0.49049,1.58397 -0.27012,0.63358 -0.6179,1.10877 -0.34778,0.47519 -1.04029,1.10878 -0.68319,0.58078 -2.54033,1.53116 -1.80434,0.95038 -4.39136,1.84796 -2.5249,0.84478 -5.74244,1.42557 -3.16474,0.580788 -6.75506,0.580788 -7.02225,0 -12.29002,-2.164758 -5.26776,-2.16475 -8.47358,-6.44145 -3.1965,-4.32951 -4.17265,-10.77096 -0.97616,-6.44146 0.53204,-14.99487 1.53612,-8.71181 5.05093,-15.47006 3.51482,-6.75825 8.49588,-11.35175 4.98107,-4.5935 11.20789,-6.96944 6.27961,-2.37595 13.30185,-2.37595 2.85114,0 5.40729,0.47519 2.55615,0.47519 4.63405,1.26717 2.14002,0.73918 3.75829,1.74236 1.61827,1.00318 2.17432,1.74236 0.61815,0.68639 0.79837,1.16158 0.1802,0.47519 0.20826,1.21437 0.0281,0.73919 -0.096,1.74236 -0.0713,1.00318 -0.33197,2.48155 -0.27929,1.58396 -0.5804,2.69274 -0.30111,1.10877 -0.68613,1.79516 -0.38501,0.68638 -0.81047,1.00318 -0.42545,0.31679 -0.90064,0.31679 -0.79198,0 -1.84809,-0.89758 -1.0468,-0.95038 -2.80484,-2.05916 -1.69594,-1.16157 -4.23042,-2.05915 -2.47236,-0.95038 -6.16828,-0.95038 -4.06551,0 -7.58415,1.68956 -3.45654,1.63677 -6.27617,4.7519 -2.75752,3.06233 -4.69181,7.44463 -1.9343,4.38231 -2.90253,9.87338 -1.06132,6.01907 -0.62898,10.45417 0.49447,4.38231 2.26208,7.23344 1.82042,2.85114 4.78977,4.27671 3.03148,1.37277 7.09699,1.37277 3.69592,0 6.53761,-0.84478 2.85101,-0.89758 4.93797,-1.95356 2.13975,-1.05598 3.50308,-1.90076 1.41613,-0.84478 2.10251,-0.84478 0.52799,0 0.80755,0.2112 0.27955,0.21119 0.37902,0.84478 0.0995,0.63358 2.7e-4,1.79516 -0.0899,1.10877 -0.42507,3.00953 z"
         style="fill:#ff1a1a;stroke-width:1"
         id="path11938" /></clipPath><clipPath
       clipPathUnits="userSpaceOnUse"
       id="clipPath12678"><path
         d="m 707.67043,-110.97467 q -0.23275,1.31997 -0.50591,2.27035 -0.21108,0.89758 -0.49051,1.58397 -0.27011,0.63358 -0.61788,1.10877 -0.3478,0.47519 -1.04029,1.10878 -0.68321,0.58078 -2.54034,1.53116 -1.80436,0.95038 -4.39135,1.84796 -2.52491,0.84478 -5.74246,1.42557 -3.16473,0.580788 -6.75505,0.580788 -7.02225,0 -12.29003,-2.164758 -5.26777,-2.16475 -8.47357,-6.44145 -3.19651,-4.32951 -4.17266,-10.77096 -0.97616,-6.44146 0.53205,-14.99487 1.53611,-8.71181 5.05094,-15.47006 3.51481,-6.75825 8.49588,-11.35175 4.98105,-4.5935 11.20788,-6.96944 6.2796,-2.37595 13.30185,-2.37595 2.85115,0 5.40729,0.47519 2.55614,0.47519 4.63405,1.26717 2.14002,0.73918 3.7583,1.74236 1.61827,1.00318 2.17432,1.74236 0.61814,0.68639 0.79835,1.16158 0.18021,0.47519 0.20825,1.21437 0.0281,0.73919 -0.096,1.74236 -0.0713,1.00318 -0.33198,2.48155 -0.27929,1.58396 -0.58039,2.69274 -0.30112,1.10877 -0.68611,1.79516 -0.38505,0.68638 -0.8105,1.00318 -0.42545,0.31679 -0.90064,0.31679 -0.79198,0 -1.84807,-0.89758 -1.04682,-0.95038 -2.80484,-2.05916 -1.69596,-1.16157 -4.23043,-2.05915 -2.47237,-0.95038 -6.16828,-0.95038 -4.06551,0 -7.58415,1.68956 -3.45654,1.63677 -6.27618,4.7519 -2.75752,3.06233 -4.6918,7.44463 -1.93429,4.38231 -2.90254,9.87338 -1.06132,6.01907 -0.62896,10.45417 0.49445,4.38231 2.26208,7.23344 1.82041,2.85114 4.78978,4.27671 3.03146,1.37277 7.09697,1.37277 3.69591,0 6.53761,-0.84478 2.85102,-0.89758 4.93798,-1.95356 2.13973,-1.05598 3.50308,-1.90076 1.41613,-0.84478 2.10251,-0.84478 0.52798,0 0.80753,0.2112 0.27956,0.21119 0.37905,0.84478 0.0995,0.63358 0,1.79516 -0.0899,1.10877 -0.42508,3.00953 z"
         style="fill:#3333ff;stroke-width:1"
         id="path12680" /></clipPath><clipPath
       clipPathUnits="userSpaceOnUse"
       id="clipPath17050"><path
         d="m 455.39761,-110.97467 q -0.23276,1.31997 -0.50591,2.27035 -0.21109,0.89758 -0.49052,1.58397 -0.27011,0.63358 -0.61788,1.10877 -0.34779,0.47519 -1.04029,1.10878 -0.6832,0.58078 -2.54034,1.53116 -1.80433,0.95038 -4.39137,1.84796 -2.52489,0.84478 -5.74244,1.42557 -3.16473,0.580788 -6.75505,0.580788 -7.02225,0 -12.29002,-2.164758 -5.26775,-2.16475 -8.47358,-6.44145 -3.19651,-4.32951 -4.17266,-10.77096 -0.97613,-6.44146 0.53205,-14.99487 1.53614,-8.71181 5.05095,-15.47006 3.5148,-6.75825 8.49587,-11.35175 4.98105,-4.5935 11.20789,-6.96944 6.27959,-2.37595 13.30184,-2.37595 2.85113,0 5.40729,0.47519 2.55614,0.47519 4.63405,1.26717 2.14003,0.73918 3.7583,1.74236 1.61827,1.00318 2.17432,1.74236 0.61814,0.68639 0.79835,1.16158 0.18021,0.47519 0.20828,1.21437 0.0281,0.73919 -0.096,1.74236 -0.0713,1.00318 -0.33197,2.48155 -0.2793,1.58396 -0.58039,2.69274 -0.3011,1.10877 -0.68615,1.79516 -0.38499,0.68638 -0.81044,1.00318 -0.42548,0.31679 -0.90067,0.31679 -0.79198,0 -1.84806,-0.89758 -1.0468,-0.95038 -2.80485,-2.05916 -1.69595,-1.16157 -4.23042,-2.05915 -2.47238,-0.95038 -6.16829,-0.95038 -4.06551,0 -7.58415,1.68956 -3.45654,1.63677 -6.27618,4.7519 -2.75751,3.06233 -4.6918,7.44463 -1.93429,4.38231 -2.90253,9.87338 -1.06133,6.01907 -0.62897,10.45417 0.49445,4.38231 2.26208,7.23344 1.82041,2.85114 4.78978,4.27671 3.03146,1.37277 7.09697,1.37277 3.69591,0 6.53762,-0.84478 2.85101,-0.89758 4.93797,-1.95356 2.13974,-1.05598 3.50308,-1.90076 1.41613,-0.84478 2.10251,-0.84478 0.52798,0 0.80754,0.2112 0.27956,0.21119 0.37904,0.84478 0.0995,0.63358 2.4e-4,1.79516 -0.0899,1.10877 -0.42505,3.00953 z"
         style="fill:#33ff33;stroke-width:1"
         id="path17052" /></clipPath><linearGradient
       inkscape:collect="always"
       xlink:href="#linearGradient1278"
       id="linearGradient661"
       gradientUnits="userSpaceOnUse"
       gradientTransform="matrix(0.98146158,0,0,0.91942847,57.636708,-168.56946)"
       x1="-197.19611"
       y1="138.19037"
       x2="-197.19611"
       y2="219.10492" /><linearGradient
       inkscape:collect="always"
       xlink:href="#linearGradient982"
       id="linearGradient663"
       gradientUnits="userSpaceOnUse"
       gradientTransform="translate(-257.17152,-333.40572)"
       x1="121.26781"
       y1="291.89233"
       x2="121.26781"
       y2="366.28748" /></defs><g
     inkscape:label="Layer 1"
     inkscape:groupmode="layer"
     id="layer1"><rect
       style="fill:url(#linearGradient8098);fill-opacity:1;stroke:url(#linearGradient984);stroke-width:0;stroke-linejoin:round;stroke-dasharray:none;stroke-opacity:1"
       id="rect1517-3-8-4"
       width="79.414223"
       height="74.395142"
       x="5.4494429"
       y="43.294907"
       rx="13.951315"
       transform="matrix(0.8835178,-0.46839759,0,1,0,0)" /><rect
       style="fill:url(#linearGradient661);fill-opacity:1;stroke:url(#linearGradient663);stroke-width:0;stroke-linejoin:round;stroke-dasharray:none;stroke-opacity:1"
       id="rect1517-3-8-4-8"
       width="79.414223"
       height="74.395142"
       x="-175.61082"
       y="-41.513313"
       rx="13.951315"
       transform="matrix(-0.8835178,-0.46839759,0,1,0,0)" /><rect
       style="fill:url(#linearGradient8102);fill-opacity:1;stroke:url(#linearGradient8104);stroke-width:0;stroke-linejoin:round;stroke-dasharray:none"
       id="rect1517-3-8-8-6"
       width="79.414116"
       height="79.414627"
       x="136.96304"
       y="46.430222"
       rx="14.967293"
       transform="matrix(0.88350932,0.46841358,-0.88352628,0.46838159,0,0)" /><g
       id="g32250"
       transform="matrix(1.1541948,0,0,1.1541948,-226.17301,-218.99744)"><text
         xml:space="preserve"
         style="font-weight:bold;font-size:101.505px;font-family:Georgia;-inkscape-font-specification:'Georgia Bold';fill:#5d5d5d;fill-opacity:1;stroke:#ffffff;stroke-width:0;stroke-linejoin:round;stroke-dasharray:none;stroke-opacity:0.753191;filter:url(#filter32242)"
         x="225.04675"
         y="293.53293"
         id="text1917-0-3-2"><tspan
           sodipodi:role="line"
           id="tspan1915-7-0-9"
           style="font-style:normal;font-variant:normal;font-weight:bold;font-stretch:normal;font-size:101.505px;font-family:'Segoe Script';-inkscape-font-specification:'Segoe Script Bold';fill:#5d5d5d;fill-opacity:1;stroke:#0a0a0a;stroke-width:0;stroke-dasharray:none;stroke-opacity:0.753191"
           x="225.04675"
           y="293.53293">C</tspan></text><text
         xml:space="preserve"
         style="font-weight:bold;font-size:101.505px;font-family:Georgia;-inkscape-font-specification:'Georgia Bold';fill:#ffffff;fill-opacity:1;stroke:#ffffff;stroke-width:0;stroke-linejoin:round;stroke-dasharray:none;stroke-opacity:0.753191"
         x="222.40096"
         y="290.88705"
         id="text1917-0-3"><tspan
           sodipodi:role="line"
           id="tspan1915-7-0"
           style="font-style:normal;font-variant:normal;font-weight:bold;font-stretch:normal;font-size:101.505px;font-family:'Segoe Script';-inkscape-font-specification:'Segoe Script Bold';fill:#ffffff;fill-opacity:1;stroke:#0a0a0a;stroke-width:0;stroke-dasharray:none;stroke-opacity:0.753191"
           x="222.40096"
           y="290.88705">C</tspan></text></g><g
       aria-label="Color Code Converter"
       transform="matrix(1.0511956,0,-0.18535414,1.0511956,-32.933861,195.95613)"
       id="text8362-7"
       style="font-weight:bold;font-size:108.132px;font-family:'Segoe Script';-inkscape-font-specification:'Segoe Script Bold';fill:#5d5d5d;stroke:#000000;stroke-width:0;stroke-linejoin:round"><path
         d="m 237.52628,-79.760085 q 0,1.319971 -0.1056,2.27035 -0.0528,0.89758 -0.21119,1.583965 -0.1584,0.633586 -0.4224,1.108775 -0.26399,0.47519 -0.84478,1.108775 -0.58078,0.580788 -2.27035,1.531167 -1.63676,0.950378 -4.06551,1.847959 -2.37594,0.844781 -5.49107,1.425568 -3.06234,0.580787 -6.65266,0.580787 -7.02224,0 -12.67172,-2.164752 -5.64947,-2.164752 -9.60938,-6.441457 -3.95992,-4.329504 -6.07187,-10.770961 -2.11195,-6.441458 -2.11195,-14.994871 0,-8.7118 2.32315,-15.47005 2.32315,-6.75825 6.49425,-11.35175 4.17111,-4.5935 9.97898,-6.96945 5.86067,-2.37595 12.88292,-2.37595 2.85113,0 5.49107,0.47519 2.63995,0.47519 4.8575,1.26718 2.27035,0.73918 4.06551,1.74236 1.79516,1.00317 2.48154,1.74236 0.73919,0.68638 1.00318,1.16157 0.26399,0.47519 0.42239,1.21438 0.1584,0.73918 0.2112,1.74236 0.10559,1.00317 0.10559,2.48154 0,1.58397 -0.10559,2.69274 -0.1056,1.10878 -0.3696,1.79516 -0.26399,0.68639 -0.63358,1.00318 -0.36959,0.31679 -0.84478,0.31679 -0.79199,0 -2.00636,-0.89758 -1.21437,-0.95038 -3.16793,-2.05915 -1.90076,-1.16158 -4.5935,-2.05916 -2.63994,-0.95037 -6.33586,-0.95037 -4.06551,0 -7.28624,1.68956 -3.16792,1.63676 -5.43827,4.75189 -2.21756,3.06234 -3.37913,7.44464 -1.16157,4.3823 -1.16157,9.87338 0,6.019066 1.21437,10.454168 1.26717,4.382302 3.53752,7.233439 2.32315,2.851137 5.54388,4.276705 3.27353,1.37277 7.33904,1.37277 3.69591,0 6.38865,-0.844781 2.69274,-0.89758 4.5935,-1.953557 1.95356,-1.055977 3.16793,-1.900758 1.26717,-0.844781 1.95356,-0.844781 0.52799,0 0.84478,0.211195 0.31679,0.211196 0.52799,0.844782 0.21119,0.633585 0.31679,1.79516 0.1056,1.108775 0.1056,3.009533 z"
         style="fill:#ff3333;fill-opacity:1"
         id="path10276" /><path
         d="m 294.33782,-95.230142 q 0,6.019066 -1.58396,10.982156 -1.58397,4.963091 -4.8047,8.553411 -3.22073,3.59032 -8.07822,5.543877 -4.85749,1.953557 -11.35175,1.953557 -6.28306,0 -10.92936,-1.742362 -4.64629,-1.742361 -7.70862,-5.068687 -3.06234,-3.326327 -4.5407,-8.183819 -1.47837,-4.857492 -1.47837,-11.087754 0,-6.019067 1.58396,-10.982157 1.63677,-5.01589 4.8575,-8.55341 3.22072,-3.59032 8.02542,-5.54388 4.85749,-1.95355 11.35175,-1.95355 6.33586,0 10.98215,1.74236 4.6463,1.68956 7.65583,5.01589 3.06234,3.32632 4.5407,8.18381 1.47837,4.8575 1.47837,11.140558 z m -13.6749,0.527988 q 0,-3.484723 -0.58078,-6.388656 -0.52799,-2.95674 -1.84796,-5.12149 -1.31997,-2.16475 -3.53752,-3.37912 -2.16476,-1.21438 -5.49108,-1.21438 -2.95674,0 -5.17429,1.10878 -2.21755,1.05598 -3.64312,3.16793 -1.42557,2.05915 -2.16475,5.01589 -0.68638,2.903933 -0.68638,6.65265 0,3.484722 0.58078,6.441457 0.58079,2.903936 1.84796,5.068688 1.31997,2.164752 3.53752,3.379125 2.21755,1.161574 5.49108,1.161574 3.00954,0 5.22709,-1.055977 2.21755,-1.108775 3.64312,-3.167929 1.42556,-2.059155 2.11195,-4.96309 0.68638,-2.956735 0.68638,-6.705452 z"
         style="font-family:Calibri;-inkscape-font-specification:'Calibri Bold';fill:#ffffff"
         id="path10278" /><path
         d="m 318.1501,-71.206675 q 0,0.527989 -0.3168,0.950379 -0.31679,0.369592 -1.10877,0.633586 -0.73919,0.263995 -2.00636,0.369592 -1.26717,0.158397 -3.22073,0.158397 -1.95355,0 -3.22072,-0.158397 -1.26718,-0.105597 -2.05916,-0.369592 -0.73918,-0.263994 -1.05598,-0.633586 -0.31679,-0.42239 -0.31679,-0.950379 v -69.430465 q 0,-0.52798 0.31679,-0.95037 0.3168,-0.4224 1.05598,-0.68639 0.79198,-0.31679 2.05916,-0.47519 1.26717,-0.1584 3.22072,-0.1584 1.95356,0 3.22073,0.1584 1.26717,0.1584 2.00636,0.47519 0.79198,0.26399 1.10877,0.68639 0.3168,0.42239 0.3168,0.95037 z"
         style="font-family:Calibri;-inkscape-font-specification:'Calibri Bold';fill:#ffffff"
         id="path10280" /><path
         d="m 379.02714,-95.230142 q 0,6.019066 -1.58397,10.982156 -1.58396,4.963091 -4.80469,8.553411 -3.22073,3.59032 -8.07822,5.543877 -4.8575,1.953557 -11.35175,1.953557 -6.28306,0 -10.92936,-1.742362 -4.6463,-1.742361 -7.70863,-5.068687 -3.06233,-3.326327 -4.5407,-8.183819 -1.47837,-4.857492 -1.47837,-11.087754 0,-6.019067 1.58397,-10.982157 1.63676,-5.01589 4.85749,-8.55341 3.22073,-3.59032 8.02542,-5.54388 4.8575,-1.95355 11.35175,-1.95355 6.33586,0 10.98216,1.74236 4.6463,1.68956 7.65583,5.01589 3.06233,3.32632 4.5407,8.18381 1.47837,4.8575 1.47837,11.140558 z m -13.6749,0.527988 q 0,-3.484723 -0.58079,-6.388656 -0.52799,-2.95674 -1.84796,-5.12149 -1.31997,-2.16475 -3.53752,-3.37912 -2.16475,-1.21438 -5.49108,-1.21438 -2.95673,0 -5.17428,1.10878 -2.21755,1.05598 -3.64312,3.16793 -1.42557,2.05915 -2.16475,5.01589 -0.68639,2.903933 -0.68639,6.65265 0,3.484722 0.58079,6.441457 0.58079,2.903936 1.84796,5.068688 1.31997,2.164752 3.53752,3.379125 2.21755,1.161574 5.49108,1.161574 3.00953,0 5.22708,-1.055977 2.21755,-1.108775 3.64312,-3.167929 1.42557,-2.059155 2.11195,-4.96309 0.68639,-2.956735 0.68639,-6.705452 z"
         style="font-family:Calibri;-inkscape-font-specification:'Calibri Bold';fill:#ffffff"
         id="path10282" /><path
         d="m 419.78784,-113.92093 q 0,1.90076 -0.1056,3.11513 -0.1056,1.21438 -0.31679,1.90076 -0.2112,0.68639 -0.58079,0.95038 -0.31679,0.26399 -0.84478,0.26399 -0.42239,0 -0.95038,-0.15839 -0.52799,-0.2112 -1.21437,-0.42239 -0.63359,-0.2112 -1.42557,-0.36959 -0.79199,-0.2112 -1.74236,-0.2112 -1.10878,0 -2.21756,0.47519 -1.10877,0.42239 -2.32314,1.37277 -1.16158,0.95038 -2.48155,2.53434 -1.26717,1.58397 -2.74554,3.90712 v 29.356145 q 0,0.527989 -0.31679,0.950379 -0.31679,0.369592 -1.10878,0.633586 -0.73918,0.263995 -2.00635,0.369592 -1.26717,0.158397 -3.22073,0.158397 -1.95356,0 -3.22073,-0.158397 -1.26717,-0.105597 -2.05915,-0.369592 -0.73919,-0.263994 -1.05598,-0.633586 -0.31679,-0.42239 -0.31679,-0.950379 v -47.096555 q 0,-0.52799 0.26399,-0.89758 0.264,-0.42239 0.95038,-0.68639 0.68638,-0.26399 1.74236,-0.36959 1.10878,-0.15839 2.74554,-0.15839 1.68956,0 2.79834,0.15839 1.10877,0.1056 1.68956,0.36959 0.63359,0.264 0.89758,0.68639 0.264,0.36959 0.264,0.89758 v 5.86067 q 1.84795,-2.63994 3.48472,-4.3295 1.63676,-1.74237 3.11513,-2.74554 1.47837,-1.00318 2.95673,-1.37277 1.47837,-0.42239 2.95674,-0.42239 0.68638,0 1.47837,0.10559 0.79198,0.0528 1.63676,0.264 0.84478,0.15839 1.47837,0.42239 0.63358,0.21119 0.89758,0.47519 0.31679,0.26399 0.42239,0.58078 0.15839,0.3168 0.26399,0.89759 0.1056,0.52798 0.1584,1.63676 0.0528,1.10877 0.0528,3.00953 z"
         style="font-family:Calibri;-inkscape-font-specification:'Calibri Bold';fill:#ffffff"
         id="path10284" /><path
         d="m 500.46445,-79.760085 q 0,1.319971 -0.1056,2.27035 -0.0528,0.89758 -0.21119,1.583965 -0.1584,0.633586 -0.42239,1.108775 -0.264,0.47519 -0.84478,1.108775 -0.58079,0.580788 -2.27035,1.531167 -1.63677,0.950378 -4.06551,1.847959 -2.37595,0.844781 -5.49108,1.425568 -3.06234,0.580787 -6.65266,0.580787 -7.02224,0 -12.67171,-2.164752 -5.64948,-2.164752 -9.60939,-6.441457 -3.95991,-4.329504 -6.07187,-10.770961 -2.11195,-6.441458 -2.11195,-14.994871 0,-8.7118 2.32315,-15.47005 2.32315,-6.75825 6.49425,-11.35175 4.17111,-4.5935 9.97898,-6.96945 5.86067,-2.37595 12.88292,-2.37595 2.85113,0 5.49108,0.47519 2.63994,0.47519 4.85749,1.26718 2.27035,0.73918 4.06551,1.74236 1.79516,1.00317 2.48154,1.74236 0.73919,0.68638 1.00318,1.16157 0.264,0.47519 0.42239,1.21438 0.1584,0.73918 0.2112,1.74236 0.10559,1.00317 0.10559,2.48154 0,1.58397 -0.10559,2.69274 -0.1056,1.10878 -0.36959,1.79516 -0.264,0.68639 -0.63359,1.00318 -0.36959,0.31679 -0.84478,0.31679 -0.79198,0 -2.00636,-0.89758 -1.21437,-0.95038 -3.16793,-2.05915 -1.90076,-1.16158 -4.5935,-2.05916 -2.63994,-0.95037 -6.33586,-0.95037 -4.06551,0 -7.28623,1.68956 -3.16793,1.63676 -5.43828,4.75189 -2.21755,3.06234 -3.37913,7.44464 -1.16157,4.3823 -1.16157,9.87338 0,6.019066 1.21437,10.454168 1.26717,4.382302 3.53752,7.233439 2.32315,2.851137 5.54388,4.276705 3.27353,1.37277 7.33904,1.37277 3.69591,0 6.38865,-0.844781 2.69275,-0.89758 4.5935,-1.953557 1.95356,-1.055977 3.16793,-1.900758 1.26717,-0.844781 1.95356,-0.844781 0.52799,0 0.84478,0.211195 0.31679,0.211196 0.52799,0.844782 0.21119,0.633585 0.31679,1.79516 0.1056,1.108775 0.1056,3.009533 z"
         style="fill:#33ff33;fill-opacity:1"
         id="path10286" /><path
         d="m 557.27601,-95.230142 q 0,6.019066 -1.58397,10.982156 -1.58396,4.963091 -4.80469,8.553411 -3.22073,3.59032 -8.07822,5.543877 -4.85749,1.953557 -11.35175,1.953557 -6.28306,0 -10.92936,-1.742362 -4.6463,-1.742361 -7.70863,-5.068687 -3.06233,-3.326327 -4.5407,-8.183819 -1.47836,-4.857492 -1.47836,-11.087754 0,-6.019067 1.58396,-10.982157 1.63676,-5.01589 4.85749,-8.55341 3.22073,-3.59032 8.02542,-5.54388 4.8575,-1.95355 11.35175,-1.95355 6.33586,0 10.98216,1.74236 4.6463,1.68956 7.65583,5.01589 3.06233,3.32632 4.5407,8.18381 1.47837,4.8575 1.47837,11.140558 z m -13.6749,0.527988 q 0,-3.484723 -0.58079,-6.388656 -0.52799,-2.95674 -1.84796,-5.12149 -1.31997,-2.16475 -3.53752,-3.37912 -2.16475,-1.21438 -5.49108,-1.21438 -2.95673,0 -5.17428,1.10878 -2.21755,1.05598 -3.64312,3.16793 -1.42557,2.05915 -2.16475,5.01589 -0.68639,2.903933 -0.68639,6.65265 0,3.484722 0.58079,6.441457 0.58079,2.903936 1.84796,5.068688 1.31997,2.164752 3.53752,3.379125 2.21755,1.161574 5.49108,1.161574 3.00953,0 5.22708,-1.055977 2.21755,-1.108775 3.64312,-3.167929 1.42557,-2.059155 2.11196,-4.96309 0.68638,-2.956735 0.68638,-6.705452 z"
         style="font-family:Calibri;-inkscape-font-specification:'Calibri Bold';fill:#ffffff"
         id="path10288" /><path
         d="m 612.45077,-71.206675 q 0,0.580788 -0.26399,1.003178 -0.264,0.369592 -0.89758,0.633586 -0.63359,0.263994 -1.74236,0.369592 -1.05598,0.105598 -2.63994,0.105598 -1.68957,0 -2.74554,-0.105598 -1.05598,-0.105598 -1.74236,-0.369592 -0.63359,-0.263994 -0.95038,-0.633586 -0.264,-0.42239 -0.264,-1.003178 v -5.227084 q -3.64312,3.907114 -7.65583,6.071866 -3.95991,2.164752 -8.8174,2.164752 -5.38548,0 -9.1342,-2.059155 -3.69592,-2.111953 -6.07187,-5.649474 -2.32314,-3.537522 -3.37912,-8.236618 -1.05598,-4.751895 -1.05598,-9.978979 0,-6.283063 1.31997,-11.298953 1.37277,-5.01589 3.95992,-8.55341 2.58714,-3.53752 6.44145,-5.43828 3.85432,-1.90075 8.87021,-1.90075 3.95991,0 7.18064,1.63676 3.22073,1.58396 6.38866,4.6991 v -25.50184 q 0,-0.52799 0.26399,-0.95038 0.31679,-0.42239 1.05598,-0.68638 0.79198,-0.3168 2.05915,-0.47519 1.26717,-0.1584 3.22073,-0.1584 1.95356,0 3.22073,0.1584 1.26717,0.15839 2.00635,0.47519 0.73919,0.26399 1.05598,0.68638 0.31679,0.42239 0.31679,0.95038 z m -13.1997,-31.468105 q -2.85114,-3.59032 -5.49108,-5.49108 -2.58715,-1.90075 -5.43828,-1.90075 -2.58715,0 -4.4879,1.31997 -1.84796,1.26717 -3.00954,3.43192 -1.10877,2.16475 -1.68956,4.85749 -0.52799,2.639945 -0.52799,5.438283 0,2.956735 0.47519,5.755073 0.47519,2.798338 1.53117,5.015888 1.10877,2.164753 2.90393,3.484723 1.79516,1.319971 4.5407,1.319971 1.37277,0 2.63994,-0.369592 1.31998,-0.42239 2.63995,-1.319971 1.37277,-0.89758 2.79833,-2.323148 1.42557,-1.478367 3.11514,-3.59032 z"
         style="font-family:Calibri;-inkscape-font-specification:'Calibri Bold';fill:#ffffff"
         id="path10290" /><path
         d="m 669.31511,-96.127722 q 0,2.428746 -1.10878,3.59032 -1.05597,1.161574 -2.95673,1.161574 h -28.66977 q 0,3.009534 0.68639,5.491079 0.73918,2.428746 2.27035,4.171107 1.58396,1.689563 4.01271,2.587143 2.48154,0.89758 5.91347,0.89758 3.48472,0 6.12466,-0.475189 2.63994,-0.527989 4.5407,-1.108776 1.95356,-0.633586 3.22073,-1.108775 1.26717,-0.527989 2.05915,-0.527989 0.47519,0 0.79199,0.211196 0.31679,0.158396 0.52799,0.633586 0.21119,0.475189 0.26399,1.372769 0.1056,0.844782 0.1056,2.164752 0,1.161575 -0.0528,2.006356 -0.0528,0.791982 -0.1584,1.372769 -0.1056,0.580788 -0.31679,1.003178 -0.2112,0.369592 -0.58079,0.739184 -0.31679,0.369592 -1.84796,1.003178 -1.53116,0.633586 -3.90711,1.267172 -2.37595,0.580787 -5.43828,1.003177 -3.06233,0.47519 -6.54706,0.47519 -6.28306,0 -11.03495,-1.583965 -4.6991,-1.583965 -7.86703,-4.804694 -3.16793,-3.220728 -4.75189,-8.131019 -1.53117,-4.910292 -1.53117,-11.510145 0,-6.283066 1.63677,-11.298946 1.63676,-5.06869 4.75189,-8.55341 3.11513,-3.53753 7.55023,-5.38549 4.4879,-1.84795 10.08458,-1.84795 5.91347,0 10.08458,1.74236 4.2239,1.74236 6.91664,4.85749 2.69274,3.06233 3.95992,7.28624 1.26717,4.2239 1.26717,9.186995 z m -12.88292,-3.801516 q 0.1584,-5.596672 -2.27035,-8.764602 -2.37594,-3.22073 -7.39183,-3.22073 -2.53435,0 -4.4351,0.95038 -1.84796,0.95038 -3.11514,2.58714 -1.21437,1.58396 -1.90075,3.80151 -0.63359,2.16476 -0.73919,4.646302 z"
         style="font-family:Calibri;-inkscape-font-specification:'Calibri Bold';fill:#ffffff"
         id="path10292" /><path
         d="m 752.73728,-79.760085 q 0,1.319971 -0.1056,2.27035 -0.0528,0.89758 -0.2112,1.583965 -0.15839,0.633586 -0.42239,1.108775 -0.26399,0.47519 -0.84478,1.108775 -0.58078,0.580788 -2.27035,1.531167 -1.63676,0.950378 -4.06551,1.847959 -2.37594,0.844781 -5.49108,1.425568 -3.06233,0.580787 -6.65265,0.580787 -7.02224,0 -12.67172,-2.164752 -5.64947,-2.164752 -9.60938,-6.441457 -3.95992,-4.329504 -6.07187,-10.770961 -2.11195,-6.441458 -2.11195,-14.994871 0,-8.7118 2.32315,-15.47005 2.32314,-6.75825 6.49425,-11.35175 4.17111,-4.5935 9.97898,-6.96945 5.86067,-2.37595 12.88291,-2.37595 2.85114,0 5.49108,0.47519 2.63994,0.47519 4.8575,1.26718 2.27035,0.73918 4.06551,1.74236 1.79516,1.00317 2.48154,1.74236 0.73918,0.68638 1.00318,1.16157 0.26399,0.47519 0.42239,1.21438 0.1584,0.73918 0.21119,1.74236 0.1056,1.00317 0.1056,2.48154 0,1.58397 -0.1056,2.69274 -0.10559,1.10878 -0.36959,1.79516 -0.26399,0.68639 -0.63358,1.00318 -0.3696,0.31679 -0.84478,0.31679 -0.79199,0 -2.00636,-0.89758 -1.21437,-0.95038 -3.16793,-2.05915 -1.90076,-1.16158 -4.5935,-2.05916 -2.63994,-0.95037 -6.33586,-0.95037 -4.06551,0 -7.28624,1.68956 -3.16793,1.63676 -5.43828,4.75189 -2.21755,3.06234 -3.37912,7.44464 -1.16158,4.3823 -1.16158,9.87338 0,6.019066 1.21438,10.454168 1.26717,4.382302 3.53752,7.233439 2.32315,2.851137 5.54388,4.276705 3.27352,1.37277 7.33903,1.37277 3.69592,0 6.38866,-0.844781 2.69274,-0.89758 4.5935,-1.953557 1.95356,-1.055977 3.16793,-1.900758 1.26717,-0.844781 1.95356,-0.844781 0.52799,0 0.84478,0.211195 0.31679,0.211196 0.52799,0.844782 0.21119,0.633585 0.31679,1.79516 0.1056,1.108775 0.1056,3.009533 z"
         style="fill:#4c4cff;fill-opacity:1"
         id="path10294" /><path
         d="m 809.54883,-95.230142 q 0,6.019066 -1.58396,10.982156 -1.58397,4.963091 -4.80469,8.553411 -3.22073,3.59032 -8.07823,5.543877 -4.85749,1.953557 -11.35174,1.953557 -6.28306,0 -10.92936,-1.742362 -4.6463,-1.742361 -7.70863,-5.068687 -3.06233,-3.326327 -4.5407,-8.183819 -1.47837,-4.857492 -1.47837,-11.087754 0,-6.019067 1.58397,-10.982157 1.63676,-5.01589 4.85749,-8.55341 3.22073,-3.59032 8.02542,-5.54388 4.85749,-1.95355 11.35175,-1.95355 6.33586,0 10.98216,1.74236 4.64629,1.68956 7.65583,5.01589 3.06233,3.32632 4.5407,8.18381 1.47836,4.8575 1.47836,11.140558 z m -13.67489,0.527988 q 0,-3.484723 -0.58079,-6.388656 -0.52799,-2.95674 -1.84796,-5.12149 -1.31997,-2.16475 -3.53752,-3.37912 -2.16475,-1.21438 -5.49108,-1.21438 -2.95673,0 -5.17428,1.10878 -2.21756,1.05598 -3.64312,3.16793 -1.42557,2.05915 -2.16476,5.01589 -0.68638,2.903933 -0.68638,6.65265 0,3.484722 0.58079,6.441457 0.58078,2.903936 1.84796,5.068688 1.31997,2.164752 3.53752,3.379125 2.21755,1.161574 5.49108,1.161574 3.00953,0 5.22708,-1.055977 2.21755,-1.108775 3.64312,-3.167929 1.42557,-2.059155 2.11195,-4.96309 0.68639,-2.956735 0.68639,-6.705452 z"
         style="font-family:Calibri;-inkscape-font-specification:'Calibri Bold';fill:#ffffff"
         id="path10296" /><path
         d="m 865.04036,-71.206675 q 0,0.527989 -0.31679,0.950379 -0.31679,0.369592 -1.05598,0.633586 -0.73918,0.263995 -2.05915,0.369592 -1.26717,0.158397 -3.16793,0.158397 -1.95356,0 -3.27353,-0.158397 -1.26717,-0.105597 -2.00635,-0.369592 -0.73919,-0.263994 -1.05598,-0.633586 -0.31679,-0.42239 -0.31679,-0.950379 v -26.874604 q 0,-3.431921 -0.52799,-5.385481 -0.47519,-1.95356 -1.42557,-3.32633 -0.95038,-1.42556 -2.48155,-2.16475 -1.47836,-0.79198 -3.48472,-0.79198 -2.53434,0 -5.12148,1.84796 -2.58715,1.84796 -5.38549,5.38548 v 31.309705 q 0,0.527989 -0.31679,0.950379 -0.31679,0.369592 -1.10877,0.633586 -0.73919,0.263995 -2.00636,0.369592 -1.26717,0.158397 -3.22073,0.158397 -1.95355,0 -3.22073,-0.158397 -1.26717,-0.105597 -2.05915,-0.369592 -0.73918,-0.263994 -1.05598,-0.633586 -0.31679,-0.42239 -0.31679,-0.950379 v -47.096555 q 0,-0.52799 0.26399,-0.89758 0.264,-0.42239 0.95038,-0.68639 0.68639,-0.26399 1.74236,-0.36959 1.10878,-0.15839 2.74554,-0.15839 1.68957,0 2.79834,0.15839 1.10878,0.1056 1.68956,0.36959 0.63359,0.264 0.89758,0.68639 0.264,0.36959 0.264,0.89758 v 5.43828 q 3.90711,-4.22391 7.91982,-6.33586 4.06551,-2.11195 8.44782,-2.11195 4.80469,0 8.07822,1.58396 3.32632,1.58397 5.33268,4.3295 2.05915,2.69275 2.95673,6.33586 0.89758,3.64312 0.89758,8.76461 z"
         style="font-family:Calibri;-inkscape-font-specification:'Calibri Bold';fill:#ffffff"
         id="path10298" /><path
         d="m 919.89835,-118.35603 q 0,0.26399 -0.0528,0.63359 0,0.36959 -0.1056,0.84478 -0.0528,0.42239 -0.21119,1.00318 -0.1056,0.58078 -0.3168,1.31997 l -14.15008,42.608652 q -0.264,0.89758 -0.73919,1.478367 -0.42239,0.527988 -1.47836,0.844781 -1.00318,0.316793 -2.79834,0.422391 -1.74236,0.105598 -4.5935,0.105598 -2.79834,0 -4.5935,-0.158397 -1.74236,-0.105597 -2.74554,-0.42239 -1.00317,-0.316793 -1.47836,-0.844782 -0.42239,-0.580787 -0.68639,-1.425568 l -14.15008,-42.608652 q -0.3168,-1.05598 -0.52799,-1.90076 -0.1584,-0.84478 -0.2112,-1.21437 0,-0.3696 0,-0.68639 0,-0.52799 0.264,-0.89758 0.31679,-0.42239 1.05597,-0.68638 0.73919,-0.264 2.00636,-0.3696 1.31997,-0.10559 3.27353,-0.10559 2.16475,0 3.48472,0.15839 1.31997,0.1056 2.05915,0.36959 0.79199,0.2112 1.10878,0.68639 0.31679,0.42239 0.52799,1.05598 l 10.71816,34.583229 0.31679,1.319971 0.31679,-1.319971 10.55977,-34.583229 q 0.1584,-0.63359 0.47519,-1.05598 0.36959,-0.47519 1.10878,-0.68639 0.73918,-0.26399 1.95355,-0.36959 1.26717,-0.15839 3.27353,-0.15839 1.95356,0 3.16793,0.10559 1.26717,0.1056 1.95356,0.3696 0.68638,0.26399 0.95038,0.68638 0.26399,0.36959 0.26399,0.89758 z"
         style="font-family:Calibri;-inkscape-font-specification:'Calibri Bold';fill:#ffffff"
         id="path10300" /><path
         d="m 970.21562,-96.127722 q 0,2.428746 -1.10877,3.59032 -1.05598,1.161574 -2.95674,1.161574 h -28.66976 q 0,3.009534 0.68638,5.491079 0.73918,2.428746 2.27035,4.171107 1.58397,1.689563 4.01271,2.587143 2.48155,0.89758 5.91347,0.89758 3.48472,0 6.12466,-0.475189 2.63995,-0.527989 4.5407,-1.108776 1.95356,-0.633586 3.22073,-1.108775 1.26717,-0.527989 2.05916,-0.527989 0.47519,0 0.79198,0.211196 0.31679,0.158396 0.52799,0.633586 0.21119,0.475189 0.26399,1.372769 0.1056,0.844782 0.1056,2.164752 0,1.161575 -0.0528,2.006356 -0.0528,0.791982 -0.1584,1.372769 -0.10559,0.580788 -0.31679,1.003178 -0.21119,0.369592 -0.58079,0.739184 -0.31679,0.369592 -1.84795,1.003178 -1.53117,0.633586 -3.90712,1.267172 -2.37595,0.580787 -5.43828,1.003177 -3.06233,0.47519 -6.54705,0.47519 -6.28306,0 -11.03496,-1.583965 -4.69909,-1.583965 -7.86702,-4.804694 -3.16793,-3.220728 -4.7519,-8.131019 -1.53116,-4.910292 -1.53116,-11.510145 0,-6.283066 1.63676,-11.298946 1.63676,-5.06869 4.75189,-8.55341 3.11513,-3.53753 7.55024,-5.38549 4.4879,-1.84795 10.08457,-1.84795 5.91347,0 10.08458,1.74236 4.22391,1.74236 6.91665,4.85749 2.69274,3.06233 3.95991,7.28624 1.26717,4.2239 1.26717,9.186995 z m -12.88291,-3.801516 q 0.15839,-5.596672 -2.27035,-8.764602 -2.37595,-3.22073 -7.39184,-3.22073 -2.53434,0 -4.4351,0.95038 -1.84796,0.95038 -3.11513,2.58714 -1.21438,1.58396 -1.90076,3.80151 -0.63359,2.16476 -0.73918,4.646302 z"
         style="font-family:Calibri;-inkscape-font-specification:'Calibri Bold';fill:#ffffff"
         id="path10302" /><path
         d="m 1011.3987,-113.92093 q 0,1.90076 -0.1056,3.11513 -0.1056,1.21438 -0.3168,1.90076 -0.2112,0.68639 -0.5808,0.95038 -0.3167,0.26399 -0.8447,0.26399 -0.4224,0 -0.9504,-0.15839 -0.528,-0.2112 -1.2144,-0.42239 -0.6336,-0.2112 -1.4256,-0.36959 -0.7919,-0.2112 -1.7423,-0.2112 -1.1088,0 -2.2176,0.47519 -1.1087,0.42239 -2.32312,1.37277 -1.16157,0.95038 -2.48154,2.53434 -1.26717,1.58397 -2.74554,3.90712 v 29.356145 q 0,0.527989 -0.3168,0.950379 -0.31679,0.369592 -1.10877,0.633586 -0.73918,0.263995 -2.00636,0.369592 -1.26717,0.158397 -3.22072,0.158397 -1.95356,0 -3.22073,-0.158397 -1.26718,-0.105597 -2.05916,-0.369592 -0.73918,-0.263994 -1.05597,-0.633586 -0.3168,-0.42239 -0.3168,-0.950379 v -47.096555 q 0,-0.52799 0.264,-0.89758 0.26399,-0.42239 0.95038,-0.68639 0.68638,-0.26399 1.74236,-0.36959 1.10877,-0.15839 2.74554,-0.15839 1.68956,0 2.79833,0.15839 1.10878,0.1056 1.68957,0.36959 0.63358,0.264 0.89758,0.68639 0.26399,0.36959 0.26399,0.89758 v 5.86067 q 1.84796,-2.63994 3.48472,-4.3295 1.63677,-1.74237 3.11513,-2.74554 1.47841,-1.00318 2.95671,-1.37277 1.4784,-0.42239 2.9568,-0.42239 0.6863,0 1.4783,0.10559 0.792,0.0528 1.6368,0.264 0.8448,0.15839 1.4784,0.42239 0.6335,0.21119 0.8975,0.47519 0.3168,0.26399 0.4224,0.58078 0.1584,0.3168 0.264,0.89759 0.1056,0.52798 0.1584,1.63676 0.053,1.10877 0.053,3.00953 z"
         style="font-family:Calibri;-inkscape-font-specification:'Calibri Bold';fill:#ffffff"
         id="path10304" /><path
         d="m 1047.4603,-75.852972 q 0,2.323149 -0.3168,3.590321 -0.264,1.214373 -0.7391,1.742361 -0.4752,0.47519 -1.4256,0.89758 -0.8976,0.369592 -2.1648,0.633586 -1.2143,0.316793 -2.6927,0.47519 -1.4256,0.158396 -2.9039,0.158396 -3.9599,0 -6.8639,-1.003177 -2.9039,-1.003178 -4.8047,-3.062333 -1.9007,-2.111953 -2.7983,-5.279883 -0.8976,-3.167929 -0.8976,-7.497433 v -24.129066 h -5.6495 q -1.0031,0 -1.5311,-1.21437 -0.528,-1.26717 -0.528,-4.17111 0,-1.53117 0.1056,-2.58714 0.1584,-1.05598 0.4224,-1.63677 0.264,-0.63358 0.6335,-0.89758 0.4224,-0.26399 0.9504,-0.26399 h 5.5967 v -10.50697 q 0,-0.52799 0.264,-0.95038 0.3168,-0.42239 1.056,-0.68638 0.792,-0.31679 2.0591,-0.42239 1.32,-0.1584 3.2208,-0.1584 1.9535,0 3.2207,0.1584 1.32,0.1056 2.0591,0.42239 0.7392,0.26399 1.056,0.68638 0.3168,0.42239 0.3168,0.95038 v 10.50697 h 10.243 q 0.528,0 0.8976,0.26399 0.4224,0.264 0.6863,0.89758 0.264,0.58079 0.3696,1.63677 0.1584,1.05597 0.1584,2.58714 0,2.90394 -0.528,4.17111 -0.5279,1.21437 -1.5311,1.21437 h -10.2958 v 22.12271 q 0,3.854315 1.2144,5.807871 1.2144,1.900758 4.3295,1.900758 1.056,0 1.9007,-0.158396 0.8448,-0.211196 1.4784,-0.422391 0.6864,-0.263994 1.1088,-0.422391 0.4752,-0.211195 0.8448,-0.211195 0.3168,0 0.5808,0.211195 0.3167,0.158397 0.4751,0.739184 0.1584,0.527988 0.264,1.478367 0.1584,0.950379 0.1584,2.428746 z"
         style="font-family:Calibri;-inkscape-font-specification:'Calibri Bold';fill:#ffffff"
         id="path10306" /><path
         d="m 1099.256,-96.127722 q 0,2.428746 -1.1088,3.59032 -1.056,1.161574 -2.9567,1.161574 h -28.6698 q 0,3.009534 0.6864,5.491079 0.7392,2.428746 2.2703,4.171107 1.584,1.689563 4.0127,2.587143 2.4816,0.89758 5.9135,0.89758 3.4847,0 6.1247,-0.475189 2.6399,-0.527989 4.5407,-1.108776 1.9535,-0.633586 3.2207,-1.108775 1.2672,-0.527989 2.0592,-0.527989 0.4751,0 0.7919,0.211196 0.3168,0.158396 0.528,0.633586 0.2112,0.475189 0.264,1.372769 0.1056,0.844782 0.1056,2.164752 0,1.161575 -0.053,2.006356 -0.053,0.791982 -0.1584,1.372769 -0.1056,0.580788 -0.3168,1.003178 -0.2112,0.369592 -0.5808,0.739184 -0.3168,0.369592 -1.8479,1.003178 -1.5312,0.633586 -3.9071,1.267172 -2.376,0.580787 -5.4383,1.003177 -3.0623,0.47519 -6.5471,0.47519 -6.283,0 -11.0349,-1.583965 -4.6991,-1.583965 -7.867,-4.804694 -3.168,-3.220728 -4.7519,-8.131019 -1.5312,-4.910292 -1.5312,-11.510145 0,-6.283066 1.6368,-11.298946 1.6367,-5.06869 4.7518,-8.55341 3.1152,-3.53753 7.5503,-5.38549 4.4879,-1.84795 10.0846,-1.84795 5.9134,0 10.0845,1.74236 4.2239,1.74236 6.9167,4.85749 2.6927,3.06233 3.9599,7.28624 1.2672,4.2239 1.2672,9.186995 z m -12.8829,-3.801516 q 0.1583,-5.596672 -2.2704,-8.764602 -2.3759,-3.22073 -7.3918,-3.22073 -2.5344,0 -4.4351,0.95038 -1.848,0.95038 -3.1152,2.58714 -1.2143,1.58396 -1.9007,3.80151 -0.6336,2.16476 -0.7392,4.646302 z"
         style="font-family:Calibri;-inkscape-font-specification:'Calibri Bold';fill:#ffffff"
         id="path10308" /><path
         d="m 1140.4391,-113.92093 q 0,1.90076 -0.1056,3.11513 -0.1056,1.21438 -0.3168,1.90076 -0.2112,0.68639 -0.5808,0.95038 -0.3168,0.26399 -0.8448,0.26399 -0.4224,0 -0.9504,-0.15839 -0.528,-0.2112 -1.2143,-0.42239 -0.6336,-0.2112 -1.4256,-0.36959 -0.792,-0.2112 -1.7424,-0.2112 -1.1087,0 -2.2175,0.47519 -1.1088,0.42239 -2.3232,1.37277 -1.1615,0.95038 -2.4815,2.53434 -1.2672,1.58397 -2.7456,3.90712 v 29.356145 q 0,0.527989 -0.3168,0.950379 -0.3167,0.369592 -1.1087,0.633586 -0.7392,0.263995 -2.0064,0.369592 -1.2672,0.158397 -3.2207,0.158397 -1.9536,0 -3.2207,-0.158397 -1.2672,-0.105597 -2.0592,-0.369592 -0.7392,-0.263994 -1.056,-0.633586 -0.3168,-0.42239 -0.3168,-0.950379 v -47.096555 q 0,-0.52799 0.264,-0.89758 0.264,-0.42239 0.9504,-0.68639 0.6864,-0.26399 1.7424,-0.36959 1.1087,-0.15839 2.7455,-0.15839 1.6896,0 2.7983,0.15839 1.1088,0.1056 1.6896,0.36959 0.6336,0.264 0.8976,0.68639 0.264,0.36959 0.264,0.89758 v 5.86067 q 1.8479,-2.63994 3.4847,-4.3295 1.6368,-1.74237 3.1151,-2.74554 1.4784,-1.00318 2.9568,-1.37277 1.4783,-0.42239 2.9567,-0.42239 0.6864,0 1.4784,0.10559 0.792,0.0528 1.6367,0.264 0.8448,0.15839 1.4784,0.42239 0.6336,0.21119 0.8976,0.47519 0.3168,0.26399 0.4224,0.58078 0.1584,0.3168 0.264,0.89759 0.1056,0.52798 0.1584,1.63676 0.053,1.10877 0.053,3.00953 z"
         style="font-family:Calibri;-inkscape-font-specification:'Calibri Bold';fill:#ffffff"
         id="path10310" /></g></g></svg>
